<svg width="82" height="82" viewBox="0 0 82 82" fill="none" xmlns="http://www.w3.org/2000/svg">
<path d="M54.168 31.0509H52.7566V28.2579H55.3959V27.1054H52.7566V25.9928H51.6003V27.1062H50.5319C50.1357 27.1062 49.7904 27.1715 49.5052 27.2998C49.2238 27.425 48.9926 27.6017 48.8153 27.8284C48.658 28.0313 48.5455 28.2664 48.48 28.5238C48.4152 28.7758 48.3821 29.0647 48.3821 29.3836V29.9283C48.3821 30.2472 48.4152 30.5361 48.4792 30.7828C48.5455 31.0478 48.6557 31.2768 48.8161 31.482C48.9903 31.7063 49.2215 31.8838 49.5036 32.0106C49.7888 32.1389 50.135 32.2035 50.5312 32.2035H51.5995V35.0856H49.1606V36.2381H51.5995V37.3515H52.7558V36.2381H54.1672C55.2132 36.2381 55.8892 35.4521 55.8892 34.2365V33.0525C55.89 31.8362 55.214 31.0509 54.168 31.0509ZM51.6003 31.0509H50.5319C50.2429 31.0509 50.0717 31.001 49.9792 30.9595C49.8713 30.9111 49.7881 30.8488 49.7303 30.7751C49.6694 30.6967 49.6285 30.6107 49.6008 30.4985C49.5599 30.341 49.5391 30.1489 49.5391 29.9276V29.3828C49.5391 29.1608 49.5599 28.9687 49.6015 28.8073C49.6293 28.6982 49.6709 28.6106 49.7303 28.5345C49.7881 28.4608 49.8713 28.3993 49.98 28.3509C50.0741 28.3086 50.2452 28.2587 50.5327 28.2587H51.6011L51.6003 31.0509ZM54.7337 34.2365C54.7337 34.7998 54.5433 35.0856 54.168 35.0856H52.7566V32.2035H54.168C54.5433 32.2035 54.7337 32.4893 54.7337 33.0525V34.2365Z" fill="white"/>
<path d="M52.1783 23.6078C47.7175 23.6078 44.0876 27.2252 44.0876 31.6717C44.0876 36.1183 47.7167 39.7357 52.1783 39.7357C56.6391 39.7357 60.2674 36.1183 60.2674 31.6717C60.2674 27.2252 56.6391 23.6078 52.1783 23.6078ZM52.1783 38.5832C48.355 38.5832 45.2439 35.4828 45.2439 31.6717C45.2439 27.8607 48.355 24.7603 52.1783 24.7603C56.0009 24.7603 59.1112 27.8607 59.1112 31.6717C59.1112 35.4828 56.0016 38.5832 52.1783 38.5832Z" fill="white"/>
<path d="M69.5969 20.92V20.3438H34.7606V20.92C34.7606 22.6588 33.3415 24.0734 31.5964 24.0734H31.0182V24.6166C30.7939 24.6381 30.575 24.6589 30.3453 24.6812C29.2345 24.7918 28.3573 24.8786 28.0374 24.8786C26.8596 24.8786 25.2362 26.5329 22.23 29.7032C20.3345 31.7024 18.1854 33.9676 16.078 35.6872C11.7528 39.2147 13.118 43.5744 13.6899 44.9221L10.6235 47.7942L9.89047 46.9667L6.4248 50.0171L20.279 65.6563L23.7447 62.6059L22.3872 61.0731L24.6188 58.5889C26.0602 58.635 32.5345 58.6958 35.57 56.4936L35.2902 56.1125C36.8527 56.2347 38.5901 56.3192 40.084 56.3192C40.3338 56.3192 40.5797 56.3169 40.8171 56.3123C41.8747 56.2908 42.6902 55.9166 43.2413 55.2012C44.1656 54.0003 44.0245 52.1647 43.8858 51.2795C45.7388 50.4712 45.8745 48.6279 45.9555 47.49C45.9693 47.2971 45.9817 47.1173 46.0017 46.9575C46.031 46.7278 45.9554 46.5019 45.7913 46.3213C45.7519 46.2775 45.6903 46.2391 45.6309 46.1991C46.3609 45.662 47.2404 44.8345 47.4408 43.8495C47.4994 43.5613 47.4886 43.2778 47.4254 43.0012H69.5961V42.4249C69.5961 40.6854 71.0152 39.2708 72.7604 39.2708H73.3385V24.0734H72.7604C71.016 24.0734 69.5969 22.6588 69.5969 20.92ZM20.38 64.0289L8.05589 50.1178L9.78795 48.5933L22.112 62.5045L20.38 64.0289ZM24.396 57.4272L24.1208 57.4141L21.6156 60.2033L11.3882 48.6586L15.1136 45.1687L14.8932 44.7761C14.7891 44.5902 12.3918 40.1821 16.8087 36.58C18.974 34.8143 21.1493 32.52 23.0686 30.4961C24.9549 28.5076 27.3013 26.0327 28.0359 26.0327C28.4136 26.0327 29.2715 25.9474 30.4586 25.8299C37.9419 25.0868 41.9371 25.0838 42.3271 25.8068C42.3271 25.8076 42.3264 25.8721 42.2308 26.0143C40.2104 29.0347 34.386 33.0509 31.6133 32.782C31.1161 32.7351 30.4016 32.7228 29.9383 33.1677C29.4234 33.6618 29.4658 34.4025 29.5197 35.3406C29.5922 36.6031 29.6909 38.3311 28.557 40.3926L29.5706 40.9474C30.8641 38.5954 30.7492 36.5977 30.6737 35.2753C30.6421 34.7359 30.6074 34.1251 30.7392 33.9991C30.7531 33.9852 30.8278 33.943 31.0159 33.9238V39.2708H31.5941C33.2221 39.2708 34.551 40.5071 34.7236 42.0845C33.9744 42.6193 33.5605 43.2494 33.5258 43.9701C33.4903 44.7123 33.8541 45.3485 34.2149 45.798C33.2328 46.342 31.87 47.669 32.3055 50.7932L32.6948 50.7394C31.3096 51.5139 30.4486 53.1367 30.3576 54.2377C30.2798 55.1828 30.7754 55.4679 30.9928 55.5462C31.3998 55.6938 32.61 55.8666 34.1278 56.0119C30.7854 57.7053 24.4646 57.431 24.396 57.4272ZM42.3217 54.5005C41.9903 54.93 41.49 55.1452 40.7932 55.159C37.3414 55.2289 32.5191 54.7494 31.5085 54.4967C31.4885 54.2792 31.5771 53.7544 31.9209 53.129C32.156 52.701 32.8235 51.6829 33.9405 51.4747C34.598 51.3517 35.7327 51.2895 37.3129 51.2895C39.4334 51.2895 41.7845 51.4055 42.7449 51.4578C42.8737 52.2792 42.9376 53.7029 42.3217 54.5005ZM44.8015 47.4077C44.7028 48.7946 44.5094 49.8896 43.1396 50.326C42.5445 50.2914 39.7811 50.137 37.3121 50.137C35.6602 50.137 34.4538 50.2061 33.7269 50.3421C33.6237 50.3613 33.5312 50.4044 33.4325 50.4328C33.0694 47.2187 35.0166 46.6463 35.2941 46.5825C39.2631 46.4719 43.8588 46.6194 44.83 47.0428C44.8192 47.158 44.8108 47.2802 44.8015 47.4077ZM46.3077 43.6182C46.1312 44.4934 44.8562 45.3785 44.2249 45.7381C42.0111 45.3386 38.0983 45.3555 35.439 45.4254C35.1399 45.1442 34.6558 44.5717 34.682 44.0239C34.699 43.6674 34.9533 43.3239 35.4158 42.9997H46.2075C46.3193 43.201 46.3517 43.4023 46.3077 43.6182ZM72.1823 38.1551C70.2614 38.4125 68.7367 39.9324 68.4784 41.8471H35.8783C35.6201 39.9324 34.0954 38.4125 32.1745 38.1551V33.933C35.7165 33.6971 41.2842 29.5065 43.1943 26.652C43.6468 25.9758 43.4687 25.4672 43.3231 25.2252C42.6123 24.0442 39.4488 23.9289 34.1995 24.3354C35.0921 23.6585 35.7234 22.6557 35.8791 21.4963H68.4792C68.7374 23.411 70.2621 24.9309 72.1831 25.1883L72.1823 38.1551Z" fill="white"/>
</svg>
