<svg width="82" height="82" viewBox="0 0 82 82" fill="none" xmlns="http://www.w3.org/2000/svg">
<g clip-path="url(#clip0_2658_2929)">
<path d="M76.4969 40.3453C75.6703 38.8269 73.8159 38.141 72.0828 38.7106C72.0799 38.7114 72.0784 38.7136 72.0754 38.715C72.0732 38.7158 72.071 38.715 72.0688 38.7158L55.5335 44.5368C55.6563 44.1695 55.7207 43.7787 55.7192 43.3725C55.7125 41.6635 54.4264 39.4017 50.8411 38.1733L30.8441 30.3732C30.8426 30.3725 30.8404 30.3732 30.8389 30.3725C27.005 28.7982 22.4599 30.3644 20.4871 31.2123C20.1733 26.7146 18.7954 26.496 12.8443 26.496C5.3992 26.496 5.10986 26.8316 5.10986 35.4715V42.5879V49.7035C5.10986 58.3434 5.3992 58.679 12.8443 58.679C18.5594 58.679 20.0571 58.4766 20.4449 54.478C24.9086 56.2407 41.7021 62.7116 47.6229 62.7116C48.0476 62.7116 48.4139 62.6763 48.7181 62.6049C48.7255 62.6034 48.7321 62.6041 48.7388 62.6027C48.741 62.6019 48.7447 62.6005 48.7469 62.6005C48.7491 62.5997 48.7521 62.5997 48.7543 62.599C48.7565 62.5982 48.758 62.5968 48.7602 62.596C52.2686 61.7725 72.7118 46.878 75.0354 45.1786C75.0391 45.1764 75.0399 45.172 75.0436 45.1698C75.048 45.1661 75.0539 45.1653 75.0584 45.1617C77.1511 43.5093 77.1733 41.5906 76.4969 40.3453ZM12.8443 57.2078C9.6838 57.2078 7.94184 57.2078 7.2899 56.4387C6.58986 55.6143 6.58986 53.5153 6.58986 49.7035V42.5879V35.4715C6.58986 31.6605 6.58986 29.5607 7.2899 28.7364C7.94184 27.968 9.68306 27.968 12.8443 27.968C16.0056 27.968 17.7468 27.968 18.3995 28.7364C19.0996 29.5607 19.0996 31.6605 19.0996 35.4715V42.5879V49.7035C19.0996 53.5153 19.0996 55.6143 18.3995 56.4379C17.7468 57.2078 16.0056 57.2078 12.8443 57.2078ZM74.1378 44.0091C65.0943 50.6191 50.7975 60.6331 48.4139 61.1667C48.411 61.1675 48.4095 61.1697 48.4065 61.1704C48.4036 61.1704 48.4013 61.1697 48.3984 61.1704C44.7657 62.0595 27.4564 55.6813 20.5403 52.9309C20.5722 52.0094 20.5796 50.9452 20.5796 49.7035V42.5879V35.4715C20.5796 34.472 20.5751 33.5881 20.5566 32.7983C21.8834 32.1801 26.6165 30.2165 30.2898 31.7385C30.2921 31.7392 30.295 31.7385 30.2972 31.74C30.2995 31.7407 30.3017 31.7429 30.3039 31.7444L50.3105 39.5475C50.3157 39.5497 50.3216 39.5489 50.3261 39.5504C50.3313 39.5526 50.335 39.557 50.3409 39.5592C53.2076 40.5352 54.2348 42.1728 54.2392 43.3791C54.2436 44.3903 53.5784 45.2279 52.461 45.6187L52.4602 45.6195C52.4602 45.6195 52.4588 45.6195 52.4588 45.6202C52.458 45.6202 52.4573 45.6202 52.4565 45.6202C49.6179 46.6351 39.8188 43.315 36.2801 41.9512C35.8998 41.8048 35.4706 41.9932 35.3226 42.3715C35.1753 42.7505 35.364 43.1767 35.7451 43.3239C36.9225 43.7773 46.1318 47.2659 51.0602 47.2659C51.8009 47.2659 52.4454 47.1871 52.9509 47.0068C52.9516 47.0068 52.9516 47.0068 52.9523 47.0068C52.9531 47.0068 52.9531 47.0061 52.9538 47.0061C52.9546 47.0061 52.956 47.0053 52.9568 47.0053C52.9575 47.0053 52.9575 47.0046 52.9583 47.0046L72.5498 40.1083C73.7352 39.7167 74.7809 40.282 75.1953 41.0452C75.7022 41.9777 75.3063 43.0854 74.1378 44.0091Z" fill="white"/>
<path d="M12.8444 48.2544C10.822 48.2544 9.17627 49.8913 9.17627 51.902C9.17627 53.9135 10.822 55.5511 12.8444 55.5511C14.8669 55.5511 16.5126 53.9135 16.5126 51.902C16.5126 49.8905 14.8669 48.2544 12.8444 48.2544ZM12.8444 54.0791C11.6382 54.0791 10.6563 53.1024 10.6563 51.902C10.6563 50.7023 11.6382 49.7264 12.8444 49.7264C14.0506 49.7264 15.0326 50.7023 15.0326 51.902C15.0326 53.1017 14.0506 54.0791 12.8444 54.0791Z" fill="white"/>
<path d="M48.2403 22.1492C48.275 22.1669 48.3032 22.1941 48.3416 22.2066C50.1717 22.8153 50.3537 23.1649 50.3537 23.8766C50.3537 24.7782 49.2777 25.5098 48.5762 25.5098C47.7815 25.5098 47.0429 25.1867 46.6485 24.6656C46.4028 24.3418 45.9381 24.2755 45.6125 24.5206C45.2862 24.7657 45.2211 25.2264 45.4667 25.5517C46.0099 26.2686 46.8653 26.7485 47.8347 26.9141V28.1594C47.8347 28.5657 48.1655 28.8954 48.5747 28.8954C48.984 28.8954 49.3147 28.5657 49.3147 28.1594V26.8699C50.6009 26.524 51.8344 25.3449 51.8344 23.8781C51.8344 22.0131 50.5217 21.3897 48.9151 20.8487C48.8796 20.8303 48.85 20.8023 48.8101 20.7891C46.98 20.1848 46.798 19.8338 46.798 19.1213C46.798 18.2197 47.874 17.4889 48.5762 17.4889C49.3702 17.4889 50.108 17.8127 50.5032 18.3331C50.7481 18.6576 51.2114 18.7231 51.5392 18.4788C51.8655 18.2344 51.9306 17.773 51.685 17.4484C51.1418 16.7293 50.2849 16.2494 49.314 16.0838V14.8407C49.314 14.4345 48.9832 14.1047 48.574 14.1047C48.1648 14.1047 47.834 14.4345 47.834 14.8407V16.1309C46.5494 16.4783 45.318 17.6559 45.318 19.1213C45.3173 20.9893 46.6322 21.6105 48.2403 22.1492Z" fill="white"/>
<path d="M48.5744 32.1175C54.4611 32.1175 59.2511 27.3534 59.2511 21.4985C59.2511 15.6436 54.4611 10.8802 48.5744 10.8802C42.6877 10.8802 37.8984 15.6436 37.8984 21.4985C37.8984 27.3541 42.6877 32.1175 48.5744 32.1175ZM48.5744 12.3522C53.6456 12.3522 57.7711 16.4554 57.7711 21.4985C57.7711 26.5423 53.6456 30.6455 48.5744 30.6455C43.5032 30.6455 39.3784 26.5423 39.3784 21.4985C39.3784 16.4547 43.5039 12.3522 48.5744 12.3522Z" fill="white"/>
</g>
<defs>
<clipPath id="clip0_2658_2929">
<rect width="82" height="82" fill="white"/>
</clipPath>
</defs>
</svg>
