<svg width="82" height="82" viewBox="0 0 82 82" fill="none" xmlns="http://www.w3.org/2000/svg">
<path d="M71.6572 63.1207L66.2026 60.3871C66.11 60.3404 66.007 60.3183 65.9035 60.3229C65.7999 60.3274 65.6992 60.3584 65.611 60.413C65.5228 60.4675 65.45 60.5438 65.3995 60.6345C65.349 60.7253 65.3225 60.8274 65.3225 60.9313V62.9281H58.5911V38.9604C58.5911 38.7989 58.5271 38.6441 58.4132 38.5299C58.2993 38.4157 58.1448 38.3516 57.9837 38.3516H54.6304V36.8046L57.4395 36.7188C58.514 36.6829 59.5659 36.3997 60.5137 35.8909C61.4615 35.3822 62.2797 34.6617 62.9052 33.7852L64.5167 31.5075C64.5794 31.4192 64.6175 31.3156 64.6269 31.2075C64.6362 31.0995 64.6167 30.9909 64.5702 30.8929C64.5237 30.795 64.4519 30.7113 64.3623 30.6505C64.2727 30.5897 64.1685 30.554 64.0605 30.547L61.3519 30.3731C60.1345 30.2977 58.9187 30.5433 57.8255 31.0855C56.7324 31.6277 55.8 32.4475 55.1213 33.4633L54.6255 34.2089V30.6154C56.3712 30.4586 57.9893 29.633 59.1428 28.3103C60.2964 26.9877 60.8965 25.27 60.8182 23.515C60.7399 21.76 59.9893 20.1028 58.7226 18.8886C57.4559 17.6745 55.7707 16.9968 54.018 16.9968C52.2653 16.9968 50.5802 17.6745 49.3135 18.8886C48.0468 20.1028 47.2961 21.76 47.2179 23.515C47.1396 25.27 47.7397 26.9877 48.8933 28.3103C50.0468 29.633 51.6649 30.4586 53.4106 30.6154V34.8562L52.4821 33.4633C51.8033 32.4476 50.871 31.6279 49.7778 31.0857C48.6847 30.5435 47.4689 30.2978 46.2516 30.3731L43.5429 30.547C43.4349 30.554 43.3307 30.5897 43.2411 30.6505C43.1515 30.7113 43.0798 30.795 43.0333 30.8929C42.9867 30.9909 42.9672 31.0995 42.9766 31.2075C42.986 31.3156 43.024 31.4192 43.0867 31.5075L44.6983 33.7852C45.3248 34.6632 46.1449 35.3846 47.0947 35.8934C48.0446 36.4022 49.0987 36.6846 50.1751 36.7188L53.418 36.817V38.3516H50.0623C49.9012 38.3516 49.7467 38.4157 49.6328 38.5299C49.5188 38.6441 49.4548 38.7989 49.4548 38.9604V62.9256H48.1557V43.748C48.1554 43.5864 48.0911 43.4315 47.977 43.3174C47.8629 43.2032 47.7082 43.1391 47.547 43.1391H39.6256C39.4646 43.1395 39.3103 43.2037 39.1964 43.3178C39.0826 43.4319 39.0185 43.5866 39.0182 43.748V62.9256H37.719V49.6713C37.719 49.5098 37.655 49.3549 37.5411 49.2407C37.4272 49.1266 37.2727 49.0624 37.1116 49.0624H29.1901C29.029 49.0624 28.8745 49.1266 28.7606 49.2407C28.6467 49.3549 28.5827 49.5098 28.5827 49.6713V62.9256H27.2835V55.5945C27.2832 55.433 27.2189 55.2781 27.1048 55.1639C26.9907 55.0498 26.8361 54.9857 26.6749 54.9857H18.7534C18.5924 54.986 18.4381 55.0503 18.3243 55.1644C18.2104 55.2785 18.1463 55.4332 18.146 55.5945V62.9256H13.9547V22.6804H16.0621C16.1658 22.6803 16.2677 22.6537 16.3582 22.6031C16.4487 22.5525 16.5248 22.4795 16.5793 22.3912C16.6338 22.3028 16.6649 22.202 16.6696 22.0982C16.6743 21.9944 16.6526 21.8912 16.6063 21.7982L13.8791 16.3371C13.8287 16.2359 13.7511 16.1507 13.6551 16.0911C13.5591 16.0315 13.4484 16 13.3355 16C13.2226 16 13.1119 16.0315 13.0159 16.0911C12.9199 16.1507 12.8423 16.2359 12.7919 16.3371L10.0647 21.7982C10.0181 21.891 9.99606 21.9943 10.0006 22.0981C10.0051 22.2019 10.036 22.3028 10.0905 22.3912C10.1449 22.4796 10.221 22.5526 10.3115 22.6033C10.402 22.6539 10.504 22.6804 10.6076 22.6804H12.7374V63.5345C12.7372 63.6146 12.7528 63.6939 12.7833 63.7679C12.8137 63.8419 12.8584 63.9092 12.9148 63.9658C12.9713 64.0225 13.0383 64.0675 13.1121 64.0981C13.1858 64.1288 13.2649 64.1446 13.3448 64.1446H65.3287V66.3911C65.3287 66.4712 65.3444 66.5505 65.375 66.6244C65.4056 66.6984 65.4505 66.7656 65.507 66.8221C65.5636 66.8787 65.6307 66.9235 65.7045 66.954C65.7784 66.9845 65.8575 67.0002 65.9374 67C66.0317 67 66.1246 66.9779 66.2088 66.9354L71.6633 64.2018C71.7644 64.1514 71.8495 64.0738 71.909 63.9777C71.9685 63.8815 72 63.7706 72 63.6575C72 63.5444 71.9685 63.4335 71.909 63.3373C71.8495 63.2412 71.7644 63.1636 71.6633 63.1133L71.6572 63.1207ZM56.1354 34.1393C56.6617 33.3523 57.3729 32.7071 58.2065 32.2603C59.04 31.8135 59.9703 31.5789 60.9155 31.5771C61.0395 31.5771 61.156 31.5771 61.2775 31.5883L62.8977 31.6927L61.9147 33.0794C61.3982 33.8029 60.7226 34.3976 59.9401 34.8175C59.1577 35.2374 58.2894 35.4713 57.4023 35.5011L55.1833 35.5682L56.1354 34.1393ZM50.2098 35.5061C49.3227 35.4763 48.4544 35.2424 47.672 34.8225C46.8895 34.4026 46.2139 33.8078 45.6974 33.0844L44.7206 31.6927L46.3408 31.5883C47.3455 31.5265 48.3489 31.7294 49.251 32.177C50.1531 32.6245 50.9226 33.3011 51.4829 34.1393L52.435 35.5682L50.2098 35.5061ZM11.6006 21.4615L13.3423 17.9723L15.0778 21.4615H11.6006ZM26.0674 62.9256H19.3621V56.2046H26.0674V62.9256ZM36.5041 62.9256H29.7976V50.2814H36.5041V62.9256ZM46.9396 62.9256H40.2343V44.3581H46.9396V62.9256ZM48.4272 23.8211C48.4272 22.7124 48.7552 21.6287 49.3697 20.7069C49.9842 19.7851 50.8577 19.0666 51.8796 18.6424C52.9014 18.2182 54.0259 18.1073 55.1107 18.3237C56.1955 18.5401 57.1919 19.074 57.9739 19.858C58.7559 20.6421 59.2884 21.6409 59.5041 22.7283C59.7197 23.8157 59.6088 24.9428 59.1854 25.9669C58.7619 26.9911 58.045 27.8665 57.1252 28.4822C56.2054 29.098 55.1241 29.4265 54.018 29.4263C52.5364 29.423 51.1164 28.8312 50.0692 27.7806C49.022 26.73 48.4329 25.3062 48.4309 23.8211H48.4272ZM57.3726 62.9256H50.671V39.5655H57.3775L57.3726 62.9256ZM66.546 65.4046V61.9154L70.0282 63.655L66.546 65.4046Z" fill="white"/>
<path d="M54.5823 27V26.5456C55.3347 26.3012 55.8761 25.643 55.8761 24.8707C55.8761 23.9982 55.1861 23.271 54.2808 23.1222C54.2321 23.1041 54.1807 23.0948 54.1288 23.0948C53.5715 23.0948 53.1189 22.7139 53.1189 22.2462C53.1189 21.7786 53.5715 21.3986 54.1288 21.3986C54.686 21.3986 55.1387 21.7786 55.1387 22.2462H56C56 21.4438 55.3962 20.7679 54.5832 20.581V20H53.7209V20.5713C52.8851 20.7431 52.2584 21.4287 52.2584 22.2462C52.2584 23.0833 52.9158 23.783 53.7816 23.9291C53.8316 23.9492 53.885 23.9595 53.9389 23.9593C54.5322 23.9593 55.0147 24.3667 55.0147 24.8671C55.0147 25.3676 54.5322 25.775 53.9389 25.775C53.3456 25.775 52.8622 25.3676 52.8622 24.8671H52C52 25.7786 52.7541 26.5323 53.7209 26.6315V26.9965L54.5823 27Z" fill="white"/>
</svg>
